<svg xmlns="http://www.w3.org/2000/svg" xmlns:xlink="http://www.w3.org/1999/xlink" width="498" height="358" viewBox="0 0 498 358">
    <defs>
        <path id="prefix__a" d="M168 0v14.018L14.02 167.999 0 168v-10.018L157.982 0H168zm0 28.98v24.038L53.018 167.999H28.982L168 28.98zm0 41.001v24.037l-73.981 73.981H69.982L168 69.981zm0 39v24.037l-34.981 34.981h-24.037L168 108.981zm0 39.999V168l-19.018-.001L168 148.98zM144.019 0L0 144.019v-24.037L119.982 0h24.037zm-41 0L0 103.019V78.982L78.981 0h24.038zm-39 0L0 64.018V39.982L39.981 0h24.038zm-40 0L0 24.018V0H24.02z"/>
    </defs>
    <g fill="none" fill-rule="evenodd" transform="matrix(-1 0 0 1 498 0)">
        <rect width="58" height="16" x="217" y="342" fill="#BBC5D0" rx="8"/>
        <g>
            <g>
                <path fill="#BBC5D0" d="M182 21c.552 0 1 .448 1 1v6h-2v-6c0-.552.448-1 1-1zm11 0c.552 0 1 .448 1 1v6h-2v-6c0-.552.447-1 1-1zm11 0c.552 0 1 .448 1 1v6h-2v-6c0-.552.448-1 1-1zm10 0c.552 0 1 .448 1 1v6h-2v-6c0-.552.448-1 1-1zm11 0c.553 0 1 .448 1 1v6h-2v-6c0-.552.448-1 1-1zm-96-6c.552 0 1 .448 1 1v12h-2V16c0-.552.448-1 1-1zm11 6c.552 0 1 .448 1 1v6h-2v-6c0-.552.447-1 1-1zm11 0c.552 0 1 .448 1 1v6h-2v-6c0-.552.448-1 1-1zm10 0c.552 0 1 .448 1 1v6h-2v-6c0-.552.448-1 1-1zm11 0c.553 0 1 .448 1 1v6h-2v-6c0-.552.448-1 1-1zM76 21c.552 0 1 .448 1 1v6h-2v-6c0-.552.448-1 1-1zm10 0c.553 0 1 .448 1 1v6h-2v-6c0-.552.448-1 1-1zM97 21c.552 0 1 .448 1 1v6h-2v-6c0-.552.448-1 1-1zm10 0c.552 0 1 .448 1 1v6h-2v-6c0-.552.448-1 1-1zm11 0c.553 0 1 .448 1 1v6h-2v-6c0-.552.448-1 1-1zm-95-6c.553 0 1 .448 1 1v12h-2V16c0-.552.449-1 1-1zm11 6c.552 0 1 .448 1 1v6h-2v-6c0-.552.447-1 1-1zm11 0c.552 0 1 .448 1 1v6h-2v-6c0-.552.448-1 1-1zm10 0c.552 0 1 .448 1 1v6h-2v-6c0-.552.448-1 1-1zm11 0c.553 0 1 .448 1 1v6h-2v-6c0-.552.448-1 1-1zM1 21c.552 0 1 .448 1 1v6H0v-6c0-.552.448-1 1-1zm11 0c.553 0 1 .448 1 1v6h-2v-6c0-.552.448-1 1-1zM312 21c.552 0 1 .448 1 1v6h-2v-6c0-.552.448-1 1-1zm22 0c.552 0 1 .448 1 1v6h-2v-6c0-.552.448-1 1-1zm10-6c.552 0 1 .448 1 1v12h-2V16c0-.552.448-1 1-1zm-21 6c.552 0 1 .448 1 1v6h-2v-6c0-.552.448-1 1-1zm-55 0c.552 0 1 .448 1 1v6h-2v-6c0-.552.448-1 1-1zm11 0c.552 0 1 .448 1 1v6h-2v-6c0-.552.448-1 1-1zm10 0c.552 0 1 .448 1 1v6h-2v-6c0-.552.448-1 1-1zm11 0c.552 0 1 .448 1 1v6h-2v-6c0-.552.448-1 1-1zM410 21c.552 0 1 .448 1 1v6h-2v-6c0-.552.448-1 1-1zm22 0c.552 0 1 .448 1 1v6h-2v-6c0-.552.448-1 1-1zm10-6c.552 0 1 .448 1 1v12h-2V16c0-.552.448-1 1-1zm-21 6c.552 0 1 .448 1 1v6h-2v-6c0-.552.448-1 1-1zm-55 0c.552 0 1 .448 1 1v6h-2v-6c0-.552.448-1 1-1zm-11 0c.552 0 1 .448 1 1v6h-2v-6c0-.552.448-1 1-1zm22 0c.552 0 1 .448 1 1v6h-2v-6c0-.552.448-1 1-1zm10 0c.552 0 1 .448 1 1v6h-2v-6c0-.552.448-1 1-1zm11 0c.552 0 1 .448 1 1v6h-2v-6c0-.552.448-1 1-1zM464 21c.552 0 1 .448 1 1v6h-2v-6c0-.552.448-1 1-1zm-11 0c.552 0 1 .448 1 1v6h-2v-6c0-.552.448-1 1-1zm22 0c.552 0 1 .448 1 1v6h-2v-6c0-.552.448-1 1-1zm12 0c.552 0 1 .448 1 1v6h-2v-6c0-.552.448-1 1-1z" transform="translate(0 23) translate(10 307)"/>
                <path fill="#FFF" d="M214 21c.552 0 1 .448 1 1v6h-2v-6c0-.552.448-1 1-1zm11 0c.553 0 1 .448 1 1v6h-2v-6c0-.552.448-1 1-1zM246 21c.552 0 1 .448 1 1v6h-2v-6c0-.552.448-1 1-1zm11 0c.553 0 1 .448 1 1v6h-2v-6c0-.552.448-1 1-1zM236 15c.552 0 1 .448 1 1v12h-2V16c0-.552.448-1 1-1z" transform="translate(0 23) translate(10 307)"/>
                <text fill="#BBC5D0" font-family="SFProText-Semibold, SF Pro Text" font-size="12" font-weight="500" letter-spacing="-.36" transform="translate(0 23) translate(10 307) matrix(-1 0 0 1 258 0)">
                    <tspan x="126.203" y="11">1</tspan>
                </text>
                <text fill="#BBC5D0" font-family="SFProText-Semibold, SF Pro Text" font-size="12" font-weight="500" letter-spacing="-.36" transform="translate(0 23) translate(10 307) matrix(-1 0 0 1 695 0)">
                    <tspan x="342.004" y="11">-1</tspan>
                </text>
                <text fill="#BBC5D0" font-family="SFProText-Semibold, SF Pro Text" font-size="12" font-weight="500" letter-spacing="-.36" transform="translate(0 23) translate(10 307) matrix(-1 0 0 1 889 0)">
                    <tspan x="438.204" y="11">-2</tspan>
                </text>
                <text fill="#BBC5D0" font-family="SFProText-Semibold, SF Pro Text" font-size="12" font-weight="500" letter-spacing="-.36" transform="translate(0 23) translate(10 307) matrix(-1 0 0 1 46 0)">
                    <tspan x="19.404" y="11">2</tspan>
                </text>
            </g>
            <g fill="#BBC5D0">
                <path d="M267 18c.552 0 1 .448 1 1v6h-2v-6c0-.552.447-1 1-1zm11 0c.553 0 1 .448 1 1v6h-2v-6c0-.552.448-1 1-1zm11 0c.552 0 1 .448 1 1v6h-2v-6c0-.552.447-1 1-1zm10 0c.552 0 1 .448 1 1v6h-2v-6c0-.552.447-1 1-1zm11 0c.552 0 1 .448 1 1v6h-2v-6c0-.552.448-1 1-1zm-96-6c.552 0 1 .448 1 1v12h-2V13c0-.552.447-1 1-1zm11 6c.552 0 1 .448 1 1v6h-2v-6c0-.552.447-1 1-1zm11 0c.552 0 1 .448 1 1v6h-2v-6c0-.552.447-1 1-1zm10 0c.552 0 1 .448 1 1v6h-2v-6c0-.552.447-1 1-1zm11 0c.552 0 1 .448 1 1v6h-2v-6c0-.552.448-1 1-1zm-96 0c.553 0 1 .448 1 1v6h-2v-6c0-.552.448-1 1-1zm10 0c.552 0 1 .448 1 1v6h-2v-6c0-.552.447-1 1-1zm11 0c.552 0 1 .448 1 1v6h-2v-6c0-.552.448-1 1-1zm10 0c.552 0 1 .448 1 1v6h-2v-6c0-.552.447-1 1-1zm11 0c.552 0 1 .448 1 1v6h-2v-6c0-.552.448-1 1-1zm-95-6c.553 0 1 .448 1 1v12h-2V13c0-.552.448-1 1-1zm11 6c.552 0 1 .448 1 1v6h-2v-6c0-.552.447-1 1-1zm11 0c.552 0 1 .448 1 1v6h-2v-6c0-.552.448-1 1-1zm10 0c.552 0 1 .448 1 1v6h-2v-6c0-.552.448-1 1-1zm11 0c.552 0 1 .448 1 1v6h-2v-6c0-.552.448-1 1-1zm-97 0c.552 0 1 .448 1 1v6h-2v-6c0-.552.448-1 1-1zm11 0c.552 0 1 .448 1 1v6h-2v-6c0-.552.447-1 1-1zm11 0c.552 0 1 .448 1 1v6h-2v-6c0-.552.448-1 1-1zm10 0c.552 0 1 .448 1 1v6h-2v-6c0-.552.448-1 1-1zm11 0c.553 0 1 .448 1 1v6h-2v-6c0-.552.448-1 1-1zM1 18c.552 0 1 .448 1 1v6H0v-6c0-.552.448-1 1-1zm11 0c.552 0 1 .448 1 1v6h-2v-6c0-.552.447-1 1-1zm11 0c.552 0 1 .448 1 1v6h-2v-6c0-.552.448-1 1-1zm10 0c.552 0 1 .448 1 1v6h-2v-6c0-.552.448-1 1-1zm11 0c.553 0 1 .448 1 1v6h-2v-6c0-.552.448-1 1-1z" transform="translate(0 23) matrix(0 -1 -1 0 25 327)"/>
                <text font-family="SFProText-Semibold, SF Pro Text" font-size="12" font-weight="500" letter-spacing="-.36" transform="translate(0 23) matrix(0 -1 -1 0 25 327) rotate(90 214 4)">
                    <tspan x="210.404" y="8">2</tspan>
                </text>
                <text font-family="SFProText-Semibold, SF Pro Text" font-size="12" font-weight="500" letter-spacing="-.36" transform="translate(0 23) matrix(0 -1 -1 0 25 327) rotate(90 320 4)">
                    <tspan x="316.257" y="8">3</tspan>
                </text>
                <text font-family="SFProText-Semibold, SF Pro Text" font-size="12" font-weight="500" letter-spacing="-.36" transform="translate(0 23) matrix(0 -1 -1 0 25 327) rotate(90 108 4)">
                    <tspan x="105.203" y="8">1</tspan>
                </text>
                <path d="M320.999 11c.552 0 1 .448 1 1v12h-2V12c0-.552.448-1 1-1zM214 18c.552 0 1 .448 1 1v5h-2v-5c0-.552.448-1 1-1z" transform="translate(0 23) matrix(0 -1 -1 0 25 327)"/>
            </g>
        </g>
        <g>
            <g transform="translate(49) translate(0 21)">
                <g transform="translate(114 10)">
                    <use fill="#E5E5E5" transform="rotate(180 84 84)" xlink:href="#prefix__a"/>
                </g>
                <circle cx="282" cy="179" r="10" fill="#F9AD28"/>
                <circle cx="113" cy="10" r="10" fill="#9ED857"/>
            </g>
            <g>
                <path fill="#9ED857" d="M46.232 25.36c.353-.424.984-.482 1.408-.128l6 5 .022.019c.022.02.044.04.064.061l.014.016c.02.021.039.044.056.067.01.011.018.024.027.036l.034.054c.011.017.02.035.03.052l.022.045c.01.02.018.04.025.06l.014.04c.008.023.015.046.02.07.005.015.009.032.012.048l.01.052.006.06.003.055L54 31v.034l-.003.048L54 31c0 .05-.004.1-.01.148l-.01.052-.011.049-.02.07-.015.039c-.007.02-.016.04-.025.06l-.023.045c-.008.017-.018.035-.028.052l-.036.054-.026.036c-.017.023-.036.046-.056.067-.03.034-.064.066-.1.096l.086-.08c-.02.021-.042.042-.064.061l-.022.02-6 5-.101.074c-.418.268-.98.189-1.307-.203l-.075-.101c-.268-.418-.189-.98.203-1.307L50.238 32H3.761l3.88 3.232.09.086c.34.363.364.93.037 1.322-.353.424-.984.482-1.408.128l-6-5-.022-.019c-.022-.02-.044-.04-.064-.061l-.014-.016c-.02-.021-.039-.044-.056-.067-.01-.011-.018-.024-.027-.036l-.034-.054c-.011-.017-.02-.035-.03-.052l-.022-.045c-.01-.02-.018-.04-.025-.06l-.014-.04c-.008-.023-.015-.046-.02-.07-.005-.015-.009-.032-.012-.048l-.01-.052c-.002-.02-.005-.04-.006-.061L0 31.02v-.039c0-.022.002-.045.004-.068L0 31c0-.05.004-.1.01-.148l.01-.052.011-.049.02-.07.015-.039c.007-.02.016-.04.025-.06l.023-.045c.008-.017.018-.035.028-.052l.036-.054.026-.036c.017-.023.036-.046.056-.067.03-.034.064-.066.1-.096l-.086.08c.02-.021.042-.042.064-.061l.022-.02 6-5 .101-.074c.418-.268.98-.189 1.307.203l.075.101c.268.418.189.98-.203 1.307L3.761 30h46.477l-3.878-3.232-.092-.086c-.339-.363-.363-.93-.036-1.322z" transform="translate(49) translate(130)"/>
                <g transform="translate(49) translate(130) matrix(-1 0 0 1 45 0)">
                    <rect width="36" height="22" fill="#9ED857" rx="11"/>
                    <text fill="#FFF" font-family="SFProText-Semibold, SF Pro Text" font-size="12" font-weight="500" letter-spacing="-.36">
                        <tspan x="10.385" y="15">X2</tspan>
                    </text>
                </g>
                <g>
                    <path fill="#9ED857" d="M48.64 298.232c.424.353.482.984.128 1.408l-5 6-.019.022c-.02.022-.04.044-.061.064l-.016.014c-.021.02-.044.039-.067.056-.011.01-.024.018-.036.027l-.054.034c-.017.011-.035.02-.052.03l-.045.022c-.02.01-.04.018-.06.025l-.04.014c-.023.008-.046.015-.07.02-.015.005-.032.009-.048.012l-.052.01-.06.006-.055.003L43 306h-.034l-.048-.003L43 306c-.05 0-.1-.004-.148-.01l-.052-.01-.049-.011-.07-.02-.039-.015c-.02-.007-.04-.016-.06-.025l-.045-.023c-.017-.008-.035-.018-.052-.028l-.054-.036-.036-.026c-.023-.017-.046-.036-.067-.056-.034-.03-.066-.064-.096-.1l.08.086c-.021-.02-.042-.042-.061-.064l-.02-.022-5-6-.074-.101c-.268-.418-.189-.98.203-1.307l.101-.075c.418-.268.98-.189 1.307.203L42 302.238V3.761l-3.232 3.88-.086.09c-.363.34-.93.364-1.322.037-.424-.353-.482-.984-.128-1.408l5-6 .019-.022c.02-.022.04-.044.061-.064l.016-.014c.021-.02.044-.039.067-.056.011-.01.024-.018.036-.027l.054-.034c.017-.011.035-.02.052-.03l.045-.022c.02-.01.04-.018.06-.025l.04-.014c.023-.008.046-.015.07-.02.015-.005.032-.009.048-.012l.052-.01c.02-.002.04-.005.061-.006L42.98 0h.039c.022 0 .045.002.068.004L43 0c.05 0 .1.004.148.01l.052.01.049.011.07.02.039.015c.02.007.04.016.06.025l.045.023c.017.008.035.018.052.028l.054.036.036.026c.023.017.046.036.067.056.034.03.066.064.096.1l-.08-.086c.021.02.042.042.061.064l.02.022 5 6 .074.101c.268.418.189.98-.203 1.307l-.101.075c-.418.268-.98.189-1.307-.203L44 3.761v298.477l3.232-3.878.086-.092c.363-.339.93-.363 1.322-.036z" transform="translate(49) translate(130) translate(14 33)"/>
                    <g transform="translate(49) translate(130) translate(14 33) matrix(-1 0 0 1 35 110)">
                        <rect width="35" height="22" fill="#9ED857" rx="11"/>
                        <text fill="#FFF" font-family="SFProText-Semibold, SF Pro Text" font-size="12" font-weight="500" letter-spacing="-.36">
                            <tspan x="10.023" y="15">Y2</tspan>
                        </text>
                    </g>
                </g>
            </g>
            <g>
                <g>
                    <path fill="#F9AD28" d="M46.232 25.36c.353-.424.984-.482 1.408-.128l6 5 .022.019c.022.02.044.04.064.061l.014.016c.02.021.039.044.056.067.01.011.018.024.027.036l.034.054c.011.017.02.035.03.052l.022.045c.01.02.018.04.025.06l.014.04c.008.023.015.046.02.07.005.015.009.032.012.048l.01.052.006.06.003.055L54 31v.034l-.003.048L54 31c0 .05-.004.1-.01.148l-.01.052-.011.049-.02.07-.015.039c-.007.02-.016.04-.025.06l-.023.045c-.008.017-.018.035-.028.052l-.036.054-.026.036c-.017.023-.036.046-.056.067-.03.034-.064.066-.1.096l.086-.08c-.02.021-.042.042-.064.061l-.022.02-6 5-.101.074c-.418.268-.98.189-1.307-.203l-.075-.101c-.268-.418-.189-.98.203-1.307L50.238 32H3.761l3.88 3.232.09.086c.34.363.364.93.037 1.322-.353.424-.984.482-1.408.128l-6-5-.022-.019c-.022-.02-.044-.04-.064-.061l-.014-.016c-.02-.021-.039-.044-.056-.067-.01-.011-.018-.024-.027-.036l-.034-.054c-.011-.017-.02-.035-.03-.052l-.022-.045c-.01-.02-.018-.04-.025-.06l-.014-.04c-.008-.023-.015-.046-.02-.07-.005-.015-.009-.032-.012-.048l-.01-.052c-.002-.02-.005-.04-.006-.061L0 31.02v-.039c0-.022.002-.045.004-.068L0 31c0-.05.004-.1.01-.148l.01-.052.011-.049.02-.07.015-.039c.007-.02.016-.04.025-.06l.023-.045c.008-.017.018-.035.028-.052l.036-.054.026-.036c.017-.023.036-.046.056-.067.03-.034.064-.066.1-.096l-.086.08c.02-.021.042-.042.064-.061l.022-.02 6-5 .101-.074c.418-.268.98-.189 1.307.203l.075.101c.268.418.189.98-.203 1.307L3.761 30h46.477l-3.878-3.232-.092-.086c-.339-.363-.363-.93-.036-1.322z" transform="translate(49) translate(204 169) translate(10)"/>
                    <g transform="translate(49) translate(204 169) translate(10) matrix(-1 0 0 1 46 0)">
                        <rect width="37" height="22" fill="#F9AD28" rx="11"/>
                        <text fill="#FFF" font-family="SFProText-Semibold, SF Pro Text" font-size="12" font-weight="500" letter-spacing="-.36">
                            <tspan x="10.198" y="15">X 1</tspan>
                        </text>
                    </g>
                </g>
                <g>
                    <path fill="#F9AD28" d="M11.64 130.232c.424.353.482.984.128 1.408l-5 6-.019.022c-.02.022-.04.044-.061.064l-.016.014c-.021.02-.044.039-.067.056-.011.01-.024.018-.036.027l-.054.034c-.017.011-.035.02-.052.03l-.045.022c-.02.01-.04.018-.06.025l-.04.014c-.023.008-.046.015-.07.02-.015.005-.032.009-.048.012l-.052.01-.06.006-.055.003L6 138h-.034l-.048-.003L6 138c-.05 0-.1-.004-.148-.01l-.052-.01-.049-.011-.07-.02-.039-.015c-.02-.007-.04-.016-.06-.025l-.045-.023c-.017-.008-.035-.018-.052-.028l-.054-.036-.036-.026c-.023-.017-.046-.036-.067-.056-.034-.03-.066-.064-.096-.1l.08.086c-.021-.02-.042-.042-.061-.064l-.02-.022-5-6-.074-.101c-.268-.418-.189-.98.203-1.307l.101-.075c.418-.268.98-.189 1.307.203L5 134.238V3.761l-3.232 3.88-.086.09c-.363.34-.93.364-1.322.037-.424-.353-.482-.984-.128-1.408l5-6L5.25.338c.02-.022.04-.044.061-.064L5.328.26c.021-.02.044-.039.067-.056.011-.01.024-.018.036-.027l.054-.034c.017-.011.035-.02.052-.03L5.582.09c.02-.01.04-.018.06-.025l.04-.014c.023-.008.046-.015.07-.02.015-.005.032-.009.048-.012l.052-.01c.02-.002.04-.005.061-.006L5.98 0h.039c.022 0 .045.002.068.004L6 0c.05 0 .1.004.148.01L6.2.02l.049.011.07.02.039.015c.02.007.04.016.06.025l.045.023c.017.008.035.018.052.028l.054.036.036.026c.023.017.046.036.067.056.034.03.066.064.096.1l-.08-.086c.021.02.042.042.061.064l.02.022 5 6 .074.101c.268.418.189.98-.203 1.307l-.101.075c-.418.268-.98.189-1.307-.203L7 3.761v130.477l3.232-3.878.086-.092c.363-.339.93-.363 1.322-.036z" transform="translate(49) translate(204 169) translate(0 32)"/>
                    <g transform="translate(49) translate(204 169) translate(0 32) matrix(-1 0 0 1 54 58)">
                        <rect width="37" height="22" fill="#F9AD28" rx="11"/>
                        <text fill="#FFF" font-family="SFProText-Semibold, SF Pro Text" font-size="12" font-weight="500" letter-spacing="-.36">
                            <tspan x="10.327" y="15">Y 1</tspan>
                        </text>
                    </g>
                </g>
            </g>
        </g>
    </g>
</svg>
