<svg xmlns="http://www.w3.org/2000/svg" xmlns:xlink="http://www.w3.org/1999/xlink" width="495" height="358" viewBox="0 0 495 358">
    <defs>
        <path id="prefix__a" d="M168 0v13.172L13.173 168H0v-10.87L157.13 0H168zm0 28.13v24.042L52.172 168H28.13L168 28.13zm0 41v24.042L93.172 168H69.13L168 69.13zm0 39v24.042L132.172 168H108.13L168 108.13zm0 40V168h-19.87L168 148.13zM143.173 0L0 143.173V119.13L119.13 0h24.043zm-41 0L0 102.173V78.13L78.13 0h24.043zm-39 0L0 63.173V39.13L39.13 0h24.043zm-40 0L0 23.173V0h23.173z"/>
    </defs>
    <g fill="none" fill-rule="evenodd">
        <rect width="58" height="16" x="304" y="342" fill="#BBC5D0" rx="8"/>
        <g>
            <g>
                <path fill="#BBC5D0" d="M279 21c.552 0 1 .448 1 1v6h-2v-6c0-.552.448-1 1-1zm11 0c.552 0 1 .448 1 1v6h-2v-6c0-.552.447-1 1-1zm11 0c.552 0 1 .448 1 1v6h-2v-6c0-.552.448-1 1-1zm10 0c.552 0 1 .448 1 1v6h-2v-6c0-.552.448-1 1-1zm11 0c.553 0 1 .448 1 1v6h-2v-6c0-.552.448-1 1-1zm-96-6c.552 0 1 .448 1 1v12h-2V16c0-.552.448-1 1-1zm11 6c.552 0 1 .448 1 1v6h-2v-6c0-.552.447-1 1-1zm11 0c.552 0 1 .448 1 1v6h-2v-6c0-.552.448-1 1-1zm10 0c.552 0 1 .448 1 1v6h-2v-6c0-.552.448-1 1-1zm11 0c.553 0 1 .448 1 1v6h-2v-6c0-.552.448-1 1-1zM173 21c.552 0 1 .448 1 1v6h-2v-6c0-.552.448-1 1-1zm10 0c.553 0 1 .448 1 1v6h-2v-6c0-.552.448-1 1-1zM194 21c.552 0 1 .448 1 1v6h-2v-6c0-.552.448-1 1-1zm10 0c.552 0 1 .448 1 1v6h-2v-6c0-.552.448-1 1-1zm11 0c.553 0 1 .448 1 1v6h-2v-6c0-.552.448-1 1-1zm-95-6c.553 0 1 .448 1 1v12h-2V16c0-.552.449-1 1-1zm11 6c.552 0 1 .448 1 1v6h-2v-6c0-.552.447-1 1-1zm11 0c.552 0 1 .448 1 1v6h-2v-6c0-.552.448-1 1-1zm10 0c.552 0 1 .448 1 1v6h-2v-6c0-.552.448-1 1-1zm11 0c.553 0 1 .448 1 1v6h-2v-6c0-.552.448-1 1-1zm-97 0c.552 0 1 .448 1 1v6h-2v-6c0-.552.448-1 1-1zm11 0c.552 0 1 .448 1 1v6h-2v-6c0-.552.447-1 1-1zm11 0c.552 0 1 .448 1 1v6h-2v-6c0-.552.448-1 1-1zm10 0c.552 0 1 .448 1 1v6h-2v-6c0-.552.448-1 1-1zm11 0c.553 0 1 .448 1 1v6h-2v-6c0-.552.448-1 1-1zm-96-6c.552 0 1 .448 1 1v12h-2V16c0-.552.448-1 1-1zm11 6c.552 0 1 .448 1 1v6h-2v-6c0-.552.447-1 1-1zm11 0c.552 0 1 .448 1 1v6h-2v-6c0-.552.448-1 1-1zm10 0c.552 0 1 .448 1 1v6h-2v-6c0-.552.448-1 1-1zm11 0c.553 0 1 .448 1 1v6h-2v-6c0-.552.448-1 1-1zM1 21c.553 0 1 .448 1 1v6H0v-6c0-.552.448-1 1-1zM409 21c.552 0 1 .448 1 1v6h-2v-6c0-.552.448-1 1-1zm22 0c.552 0 1 .448 1 1v6h-2v-6c0-.552.448-1 1-1zm10-6c.552 0 1 .448 1 1v12h-2V16c0-.552.448-1 1-1zm-21 6c.552 0 1 .448 1 1v6h-2v-6c0-.552.448-1 1-1zm-55 0c.552 0 1 .448 1 1v6h-2v-6c0-.552.448-1 1-1zm11 0c.552 0 1 .448 1 1v6h-2v-6c0-.552.448-1 1-1zm10 0c.552 0 1 .448 1 1v6h-2v-6c0-.552.448-1 1-1zm11 0c.552 0 1 .448 1 1v6h-2v-6c0-.552.448-1 1-1zM452 21c.552 0 1 .448 1 1v6h-2v-6c0-.552.448-1 1-1zm11 0c.552 0 1 .448 1 1v6h-2v-6c0-.552.448-1 1-1zm10 0c.552 0 1 .448 1 1v6h-2v-6c0-.552.448-1 1-1zm11 0c.552 0 1 .448 1 1v6h-2v-6c0-.552.448-1 1-1z" transform="translate(0 20.5) translate(0 309.5)"/>
                <path fill="#FFF" d="M311 21c.552 0 1 .448 1 1v6h-2v-6c0-.552.448-1 1-1zm11 0c.553 0 1 .448 1 1v6h-2v-6c0-.552.448-1 1-1zM343 21c.552 0 1 .448 1 1v6h-2v-6c0-.552.448-1 1-1zm11 0c.553 0 1 .448 1 1v6h-2v-6c0-.552.448-1 1-1zM333 15c.552 0 1 .448 1 1v12h-2V16c0-.552.448-1 1-1z" transform="translate(0 20.5) translate(0 309.5)"/>
                <text fill="#BBC5D0" font-family="SFProText-Semibold, SF Pro Text" font-size="12" font-weight="500" letter-spacing="-.36" transform="translate(0 20.5) translate(0 309.5)">
                    <tspan x="217.004" y="11">-1</tspan>
                </text>
                <text fill="#BBC5D0" font-family="SFProText-Semibold, SF Pro Text" font-size="12" font-weight="500" letter-spacing="-.36" transform="translate(0 20.5) translate(0 309.5)">
                    <tspan x="437.703" y="11">1</tspan>
                </text>
                <text fill="#BBC5D0" font-family="SFProText-Semibold, SF Pro Text" font-size="12" font-weight="500" letter-spacing="-.36" transform="translate(0 20.5) translate(0 309.5)">
                    <tspan x="111.204" y="11">-2</tspan>
                </text>
                <text fill="#BBC5D0" font-family="SFProText-Semibold, SF Pro Text" font-size="12" font-weight="500" letter-spacing="-.36" transform="translate(0 20.5) translate(0 309.5)">
                    <tspan x="3.057" y="11">-3</tspan>
                </text>
            </g>
            <g fill="#BBC5D0">
                <path d="M267 18c.552 0 1 .448 1 1v6h-2v-6c0-.552.448-1 1-1zm11 0c.552 0 1 .448 1 1v6h-2v-6c0-.552.447-1 1-1zm11 0c.552 0 1 .448 1 1v6h-2v-6c0-.552.448-1 1-1zm10 0c.552 0 1 .448 1 1v6h-2v-6c0-.552.448-1 1-1zm11 0c.553 0 1 .448 1 1v6h-2v-6c0-.552.448-1 1-1zm-96-6c.552 0 1 .448 1 1v12h-2V13c0-.552.448-1 1-1zm11 6c.552 0 1 .448 1 1v6h-2v-6c0-.552.447-1 1-1zm11 0c.552 0 1 .448 1 1v6h-2v-6c0-.552.448-1 1-1zm10 0c.552 0 1 .448 1 1v6h-2v-6c0-.552.448-1 1-1zm11 0c.553 0 1 .448 1 1v6h-2v-6c0-.552.448-1 1-1zM161 18c.552 0 1 .448 1 1v6h-2v-6c0-.552.448-1 1-1zm10 0c.553 0 1 .448 1 1v6h-2v-6c0-.552.448-1 1-1zM182 18c.552 0 1 .448 1 1v6h-2v-6c0-.552.448-1 1-1zm10 0c.552 0 1 .448 1 1v6h-2v-6c0-.552.448-1 1-1zm11 0c.553 0 1 .448 1 1v6h-2v-6c0-.552.448-1 1-1zm-95-6c.553 0 1 .448 1 1v12h-2V13c0-.552.449-1 1-1zm11 6c.552 0 1 .448 1 1v6h-2v-6c0-.552.447-1 1-1zm11 0c.552 0 1 .448 1 1v6h-2v-6c0-.552.448-1 1-1zm10 0c.552 0 1 .448 1 1v6h-2v-6c0-.552.448-1 1-1zm11 0c.553 0 1 .448 1 1v6h-2v-6c0-.552.448-1 1-1zm-97 0c.552 0 1 .448 1 1v6h-2v-6c0-.552.448-1 1-1zm11 0c.552 0 1 .448 1 1v6h-2v-6c0-.552.447-1 1-1zm11 0c.552 0 1 .448 1 1v6h-2v-6c0-.552.448-1 1-1zm10 0c.552 0 1 .448 1 1v6h-2v-6c0-.552.448-1 1-1zm11 0c.553 0 1 .448 1 1v6h-2v-6c0-.552.448-1 1-1zM1 18c.552 0 1 .448 1 1v6H0v-6c0-.552.448-1 1-1zm11 0c.552 0 1 .448 1 1v6h-2v-6c0-.552.447-1 1-1zm11 0c.552 0 1 .448 1 1v6h-2v-6c0-.552.448-1 1-1zm10 0c.552 0 1 .448 1 1v6h-2v-6c0-.552.448-1 1-1zm11 0c.553 0 1 .448 1 1v6h-2v-6c0-.552.448-1 1-1z" transform="translate(0 20.5) rotate(-90 398.75 -70.25)"/>
                <text font-family="SFProText-Semibold, SF Pro Text" font-size="12" font-weight="500" letter-spacing="-.36" transform="translate(0 20.5) rotate(-90 398.75 -70.25) rotate(90 214.5 4)">
                    <tspan x="210.904" y="8">2</tspan>
                </text>
                <text font-family="SFProText-Semibold, SF Pro Text" font-size="12" font-weight="500" letter-spacing="-.36" transform="translate(0 20.5) rotate(-90 398.75 -70.25) rotate(90 320.5 4)">
                    <tspan x="316.757" y="8">3</tspan>
                </text>
                <text font-family="SFProText-Semibold, SF Pro Text" font-size="12" font-weight="500" letter-spacing="-.36" transform="translate(0 20.5) rotate(-90 398.75 -70.25) rotate(90 108 4)">
                    <tspan x="105.203" y="8">1</tspan>
                </text>
                <path d="M321 12.5c.553 0 1 .448 1 1v12h-2v-12c0-.552.448-1 1-1zm-107 7c.552 0 1 .448 1 1v5h-2v-5c0-.552.447-1 1-1z" transform="translate(0 20.5) rotate(-90 398.75 -70.25)"/>
            </g>
        </g>
        <g>
            <g transform="translate(36.463) translate(.537 21)">
                <g transform="translate(8 10.348)">
                    <use fill="#E5E5E5" transform="matrix(1 0 0 -1 0 168)" xlink:href="#prefix__a"/>
                </g>
                <circle cx="10" cy="179" r="10" fill="#F9AD28"/>
                <circle cx="176" cy="10" r="10" fill="#9ED857"/>
            </g>
            <g>
                <path fill="#9ED857" d="M109.232 25.36c.353-.424.984-.482 1.408-.128l6 5 .022.019c.022.02.044.04.064.061l.014.016c.02.021.039.044.056.067.01.011.018.024.027.036l.034.054c.011.017.02.035.03.052l.022.045c.01.02.018.04.025.06l.014.04c.008.023.015.046.02.07.005.015.009.032.012.048l.01.052.006.06.003.055L117 31v.034l-.003.048L117 31c0 .05-.004.1-.01.148l-.01.052-.011.049-.02.07-.015.039c-.007.02-.016.04-.025.06l-.023.045c-.008.017-.018.035-.028.052l-.036.054-.026.036c-.017.023-.036.046-.056.067-.03.034-.064.066-.1.096l.086-.08c-.02.021-.042.042-.064.061l-.022.02-6 5-.101.074c-.418.268-.98.189-1.307-.203l-.075-.101c-.268-.418-.189-.98.203-1.307L113.238 32H3.761l3.88 3.232.09.086c.34.363.364.93.037 1.322-.353.424-.984.482-1.408.128l-6-5-.022-.019c-.022-.02-.044-.04-.064-.061l-.014-.016c-.02-.021-.039-.044-.056-.067-.01-.011-.018-.024-.027-.036l-.034-.054c-.011-.017-.02-.035-.03-.052l-.022-.045c-.01-.02-.018-.04-.025-.06l-.014-.04c-.008-.023-.015-.046-.02-.07-.005-.015-.009-.032-.012-.048l-.01-.052c-.002-.02-.005-.04-.006-.061L0 31.02v-.039c0-.022.002-.045.004-.068L0 31c0-.05.004-.1.01-.148l.01-.052.011-.049.02-.07.015-.039c.007-.02.016-.04.025-.06l.023-.045c.008-.017.018-.035.028-.052l.036-.054.026-.036c.017-.023.036-.046.056-.067.03-.034.064-.066.1-.096l-.086.08c.02-.021.042-.042.064-.061l.022-.02 6-5 .101-.074c.418-.268.98-.189 1.307.203l.075.101c.268.418.189.98-.203 1.307L3.761 30h109.477l-3.878-3.232-.092-.086c-.339-.363-.363-.93-.036-1.322z" transform="translate(36.463) translate(190.037)"/>
                <g transform="translate(36.463) translate(190.037) translate(41)">
                    <rect width="36" height="22" fill="#9ED857" rx="11"/>
                    <text fill="#FFF" font-family="SFProText-Semibold, SF Pro Text" font-size="12" font-weight="500" letter-spacing="-.36">
                        <tspan x="10.385" y="15">X2</tspan>
                    </text>
                </g>
                <g>
                    <path fill="#9ED857" d="M11.64 298.232c.424.353.482.984.128 1.408l-5 6-.019.022c-.02.022-.04.044-.061.064l-.016.014c-.021.02-.044.039-.067.056-.011.01-.024.018-.036.027l-.054.034c-.017.011-.035.02-.052.03l-.045.022c-.02.01-.04.018-.06.025l-.04.014c-.023.008-.046.015-.07.02-.015.005-.032.009-.048.012l-.052.01-.06.006-.055.003L6 306h-.034l-.048-.003L6 306c-.05 0-.1-.004-.148-.01l-.052-.01-.049-.011-.07-.02-.039-.015c-.02-.007-.04-.016-.06-.025l-.045-.023c-.017-.008-.035-.018-.052-.028l-.054-.036-.036-.026c-.023-.017-.046-.036-.067-.056-.034-.03-.066-.064-.096-.1l.08.086c-.021-.02-.042-.042-.061-.064l-.02-.022-5-6-.074-.101c-.268-.418-.189-.98.203-1.307l.101-.075c.418-.268.98-.189 1.307.203L5 302.238V3.761l-3.232 3.88-.086.09c-.363.34-.93.364-1.322.037-.424-.353-.482-.984-.128-1.408l5-6L5.25.338c.02-.022.04-.044.061-.064L5.328.26c.021-.02.044-.039.067-.056.011-.01.024-.018.036-.027l.054-.034c.017-.011.035-.02.052-.03L5.582.09c.02-.01.04-.018.06-.025l.04-.014c.023-.008.046-.015.07-.02.015-.005.032-.009.048-.012l.052-.01c.02-.002.04-.005.061-.006L5.98 0h.039c.022 0 .045.002.068.004L6 0c.05 0 .1.004.148.01L6.2.02l.049.011.07.02.039.015c.02.007.04.016.06.025l.045.023c.017.008.035.018.052.028l.054.036.036.026c.023.017.046.036.067.056.034.03.066.064.096.1l-.08-.086c.021.02.042.042.061.064l.02.022 5 6 .074.101c.268.418.189.98-.203 1.307l-.101.075c-.418.268-.98.189-1.307-.203L7 3.761v298.477l3.232-3.878.086-.092c.363-.339.93-.363 1.322-.036z" transform="translate(36.463) translate(190.037) translate(112.5 33)"/>
                    <g transform="translate(36.463) translate(190.037) translate(112.5 33) translate(15 142)">
                        <rect width="35" height="22" fill="#9ED857" rx="11"/>
                        <text fill="#FFF" font-family="SFProText-Semibold, SF Pro Text" font-size="12" font-weight="500" letter-spacing="-.36">
                            <tspan x="10.023" y="15">Y2</tspan>
                        </text>
                    </g>
                </g>
            </g>
            <g>
                <path fill="#F9AD28" d="M250.232.36c.353-.424.984-.482 1.408-.128l6 5 .022.019c.022.02.044.04.064.061l.014.016c.02.021.039.044.056.067.01.011.018.024.027.036l.034.054c.011.017.02.035.03.052l.022.045c.01.02.018.04.025.06l.014.04c.008.023.015.046.02.07.005.015.009.032.012.048l.01.052.006.06.003.055L258 6v.034l-.003.048L258 6c0 .05-.004.1-.01.148l-.01.052-.011.049-.02.07-.015.039c-.007.02-.016.04-.025.06l-.023.045c-.008.017-.018.035-.028.052l-.036.054-.026.036c-.017.023-.036.046-.056.067-.03.034-.064.066-.1.096l.086-.08c-.02.021-.042.042-.064.061l-.022.02-6 5-.101.074c-.418.268-.98.189-1.307-.203l-.075-.101c-.268-.418-.189-.98.203-1.307L254.238 7H3.761l3.88 3.232.09.086c.34.363.364.93.037 1.322-.353.424-.984.482-1.408.128l-6-5-.022-.019c-.022-.02-.044-.04-.064-.061L.26 6.672C.24 6.651.22 6.628.204 6.605c-.01-.011-.018-.024-.027-.036l-.034-.054c-.011-.017-.02-.035-.03-.052L.09 6.418c-.01-.02-.018-.04-.025-.06l-.014-.04c-.008-.023-.015-.046-.02-.07C.026 6.234.022 6.217.02 6.2l-.01-.052c-.002-.02-.005-.04-.006-.061L0 6.02V5.98c0-.022.002-.045.004-.068L0 6c0-.05.004-.1.01-.148L.02 5.8l.011-.049.02-.07.015-.039c.007-.02.016-.04.025-.06l.023-.045c.008-.017.018-.035.028-.052l.036-.054.026-.036c.017-.023.036-.046.056-.067.03-.034.064-.066.1-.096l-.086.08c.02-.021.042-.042.064-.061l.022-.02 6-5L6.46.158c.418-.268.98-.189 1.307.203l.075.101c.268.418.189.98-.203 1.307L3.761 5h250.477l-3.878-3.232-.092-.086c-.339-.363-.363-.93-.036-1.322z" transform="translate(36.463) translate(25.537 194)"/>
                <g transform="translate(36.463) translate(25.537 194) translate(111 15)">
                    <rect width="37" height="22" fill="#F9AD28" rx="11"/>
                    <text fill="#FFF" font-family="SFProText-Semibold, SF Pro Text" font-size="12" font-weight="500" letter-spacing="-.36">
                        <tspan x="10.198" y="15">X 1</tspan>
                    </text>
                </g>
                <g>
                    <path fill="#F9AD28" d="M51.64 130.232c.424.353.482.984.128 1.408l-5 6-.019.022c-.02.022-.04.044-.061.064l-.016.014c-.021.02-.044.039-.067.056-.011.01-.024.018-.036.027l-.054.034c-.017.011-.035.02-.052.03l-.045.022c-.02.01-.04.018-.06.025l-.04.014c-.023.008-.046.015-.07.02-.015.005-.032.009-.048.012l-.052.01-.06.006-.055.003L46 138h-.034l-.048-.003L46 138c-.05 0-.1-.004-.148-.01l-.052-.01-.049-.011-.07-.02-.039-.015c-.02-.007-.04-.016-.06-.025l-.045-.023c-.017-.008-.035-.018-.052-.028l-.054-.036-.036-.026c-.023-.017-.046-.036-.067-.056-.034-.03-.066-.064-.096-.1l.08.086c-.021-.02-.042-.042-.061-.064l-.02-.022-5-6-.074-.101c-.268-.418-.189-.98.203-1.307l.101-.075c.418-.268.98-.189 1.307.203L45 134.238V3.761l-3.232 3.88-.086.09c-.363.34-.93.364-1.322.037-.424-.353-.482-.984-.128-1.408l5-6 .019-.022c.02-.022.04-.044.061-.064l.016-.014c.021-.02.044-.039.067-.056.011-.01.024-.018.036-.027l.054-.034c.017-.011.035-.02.052-.03l.045-.022c.02-.01.04-.018.06-.025l.04-.014c.023-.008.046-.015.07-.02.015-.005.032-.009.048-.012l.052-.01c.02-.002.04-.005.061-.006L45.98 0h.039c.022 0 .045.002.068.004L46 0c.05 0 .1.004.148.01l.052.01.049.011.07.02.039.015c.02.007.04.016.06.025l.045.023c.017.008.035.018.052.028l.054.036.036.026c.023.017.046.036.067.056.034.03.066.064.096.1l-.08-.086c.021.02.042.042.061.064l.02.022 5 6 .074.101c.268.418.189.98-.203 1.307l-.101.075c-.418.268-.98.189-1.307-.203L47 3.761v130.477l3.232-3.878.086-.092c.363-.339.93-.363 1.322-.036z" transform="translate(36.463) translate(25.537 194) translate(214 7)"/>
                    <g transform="translate(36.463) translate(25.537 194) translate(214 7) translate(0 58)">
                        <rect width="37" height="22" fill="#F9AD28" rx="11"/>
                        <text fill="#FFF" font-family="SFProText-Semibold, SF Pro Text" font-size="12" font-weight="500" letter-spacing="-.36">
                            <tspan x="10.327" y="15">Y 1</tspan>
                        </text>
                    </g>
                </g>
            </g>
        </g>
    </g>
</svg>
