<?xml version="1.0" encoding="UTF-8"?>
<svg width="360px" height="360px" viewBox="0 0 360 360" version="1.1" xmlns="http://www.w3.org/2000/svg" xmlns:xlink="http://www.w3.org/1999/xlink">
    <title>二维码</title>
    <g id="页面-1" stroke="none" stroke-width="1" fill="none" fill-rule="evenodd">
        <g id="绑定4G手表" transform="translate(-199.000000, -270.000000)">
            <g id="二维码" transform="translate(199.000000, 270.000000)">
                <rect id="矩形" fill="#F2F2F2" x="0" y="0" width="360" height="360" rx="13.7142857"></rect>
                <g opacity="0.2" transform="translate(20.000000, 19.999807)" fill="#353535" fill-rule="nonzero" id="形状结合">
                    <path d="M44.9997409,160.000193 L44.9997409,204.999934 L134.999994,204.999548 L134.999994,185.000006 L159.999807,185.000006 L159.999807,204.999548 L135.000379,204.999934 L135.000379,229.999747 L115.000066,229.999747 L115.000066,275.000259 L135.000379,275.000259 L135,294.999 L185.000006,294.999801 L185.000006,320 L134.999994,320 L134.999,295 L115.000452,295.000193 L115.000452,320.000386 L0,320.000386 L0,204.999934 L25.0001989,204.999934 L25.0001989,185.000006 L0,185.000006 L0,160.000193 L44.9997409,160.000193 Z M275.000259,275.000259 L275.000259,294.999801 L320,294.999801 L320,320 L249.999675,320 L249.999675,275.000259 L275.000259,275.000259 Z M89.9998674,229.999747 L24.9998133,229.999747 L24.9998133,294.999801 L89.9998674,294.999801 L89.9998674,229.999747 Z M204.999548,275.000259 L204.999548,294.999801 L185.000006,294.999801 L185.000006,275.000259 L204.999548,275.000259 Z M204.999548,204.999548 L204.999548,229.999747 L185.000006,229.999747 L185.000006,275.000259 L159.999807,275.000259 L159.999807,204.999548 L204.999548,204.999548 Z M229.999747,229.999747 L229.999747,249.999675 L249.999675,249.999675 L249.999675,275.000259 L204.999548,275.000259 L204.999548,229.999747 L229.999747,229.999747 Z M69.9995542,249.999675 L69.9995542,274.999874 L44.9997409,274.999874 L44.9997409,249.999675 L69.9995542,249.999675 Z M320,249.999675 L320,274.999874 L294.999801,274.999874 L294.999801,249.999675 L320,249.999675 Z M320,185.000006 L320,204.999548 L294.999801,204.999548 L294.999801,249.999675 L249.999675,249.999675 L249.999675,229.999747 L275.000259,229.999747 L275.000259,185.000006 L320,185.000006 Z M249.999675,185.000006 L249.999675,204.999548 L229.999747,204.999548 L229.999747,185.000006 L249.999675,185.000006 Z M134.999994,134.999994 L134.999994,185.000006 L115.000066,185.000006 L115.000066,159.999807 L89.9998674,159.999807 L89.9998674,185.000006 L69.9995542,185.000006 L69.9995542,159.999807 L89.9998674,159.999807 L89.9998674,134.999994 L134.999994,134.999994 Z M185.000006,115.000452 L185.000006,134.999994 L204.999548,134.999994 L204.999548,159.999807 L185.000006,159.999807 L185.000006,185.000006 L159.999807,185.000006 L159.999807,115.000452 L185.000006,115.000452 Z M229.999747,159.999807 L229.999747,185.000006 L204.999934,185.000006 L204.999934,159.999807 L229.999747,159.999807 Z M274.999874,159.999807 L274.999874,185.000006 L249.999675,185.000006 L249.999675,159.999807 L274.999874,159.999807 Z M320,134.999994 L320,159.999807 L275.000259,159.999807 L275.000259,134.999994 L320,134.999994 Z M114.999681,0 L114.999681,69.9995539 L134.999608,69.9995539 L134.999608,89.9998674 L114.999681,89.9998674 L114.999681,115.000452 L69.9995542,115.000452 L69.9995542,135.000379 L44.9997409,135.000379 L44.9997409,115.000452 L0,115.000452 L0,0 L114.999681,0 Z M319.999614,0 L319.999614,115.000066 L249.999675,115.000066 L249.999675,135 L229.999361,135 L229.999361,114.999681 L204.999934,114.999681 L204.999934,89.9998678 L184.999621,89.9998678 L184.999621,69.9995542 L204.999934,69.9995542 L204.999934,44.9997409 L159.999808,44.9997409 L159.999807,69.9995542 L134.999994,69.9995542 L134.999994,44.9997409 L159.999807,44.9997409 L159.999808,24.9998133 L204.999548,24.9998133 L204.999548,0 L319.999614,0 Z M159.999807,89.9998674 L159.999807,114.999681 L134.999994,114.999681 L134.999994,89.9998674 L159.999807,89.9998674 Z M89.9998674,24.9998133 L24.9998133,24.9998133 L24.9998133,89.9998674 L89.9998674,89.9998674 L89.9998674,24.9998133 Z M294.999415,24.9998133 L229.999747,24.9998133 L229.999747,89.9998674 L294.999415,89.9998674 L294.999415,24.9998133 Z M69.9995542,44.9997409 L69.9995542,69.9995542 L44.9997409,69.9995542 L44.9997409,44.9997409 L69.9995542,44.9997409 Z M274.999874,44.9997409 L274.999874,69.9995542 L249.999675,69.9995542 L249.999675,44.9997409 L274.999874,44.9997409 Z"></path>
                </g>
            </g>
        </g>
    </g>
</svg>