<?xml version="1.0" encoding="UTF-8"?>
<svg width="333px" height="251px" viewBox="0 0 333 251" version="1.1" xmlns="http://www.w3.org/2000/svg" xmlns:xlink="http://www.w3.org/1999/xlink">
    <title>睡眠备份</title>
    <g id="页面-1" stroke="none" stroke-width="1" fill="none" fill-rule="evenodd">
        <g id="睡眠备份">
            <rect id="矩形" fill="#FFFFFF" x="0" y="0" width="333" height="251" rx="16"></rect>
            <g id="睡眠" transform="translate(44.500000, 77.500000)">
                <rect id="矩形" x="0" y="0" width="96" height="96"></rect>
                <path d="M80.5269495,52.2265392 C79.6195533,51.6807985 78.4663013,51.7683994 77.6517495,52.4449392 C67.955944,60.0452673 54.1194967,59.2429067 45.3671965,50.5727929 C36.6148963,41.9026792 35.6820334,28.0744174 43.1905495,18.3073392 L43.2461495,18.2313392 C43.8621669,17.3874066 43.8881737,16.2493301 43.3113495,15.3781392 L43.2713495,15.3165392 C42.6965571,14.4481554 41.6423951,14.0287559 40.6281495,14.2649392 L40.5981495,14.2721392 C23.9086897,18.1887502 12.693184,33.8509557 14.3604132,50.9125576 C16.0276424,67.9741594 30.0629968,81.1688961 47.1949495,81.7805392 C47.5837495,81.7936059 47.9722828,81.8001392 48.3605495,81.8001392 C64.4099571,81.7959206 78.2960254,70.6286305 81.7429495,54.9537392 L81.7521495,54.9093392 C81.9656191,53.871267 81.5006049,52.8115157 80.5921495,52.2657392 L80.5269495,52.2265392 Z M77.1669495,20.0905392 C76.6831012,18.7230874 75.3902781,17.8087532 73.9397495,17.8081392 L58.8213495,17.8081392 C58.1774773,17.8084573 57.5601145,18.0645945 57.1051283,18.5201809 C56.650142,18.9757673 56.3948188,19.5934672 56.3953495,20.2373392 C56.3946865,21.5779096 57.4807792,22.6652558 58.8213495,22.6661392 L69.9261495,22.6661392 L56.2937495,33.7897392 C55.1717037,34.7060449 54.7459305,36.2282643 55.2297495,37.5937392 C55.7136468,38.9613294 57.0066741,39.8756947 58.4573495,39.8761392 L74.3169495,39.8761392 C74.9607891,39.875821 75.5781322,39.6197516 76.0331705,39.1642632 C76.4882088,38.7087748 76.7436678,38.0911788 76.7433495,37.4473392 C76.7437739,36.8034304 76.4883618,36.1857316 76.033312,35.7301567 C75.5782622,35.2745818 74.9608584,35.0184574 74.3169495,35.0181392 L62.4689495,35.0181392 L76.1013495,23.8945392 C77.2237083,22.9784384 77.6495424,21.4560015 77.1653495,20.0905392 L77.1669495,20.0905392 Z" id="形状" fill="#5288F5" fill-rule="nonzero"></path>
            </g>
            <text id="睡眠" font-family="PingFangSC-Medium, PingFang SC" font-size="64" font-weight="400" line-spacing="64" fill="#353535">
                <tspan x="160.5" y="161.5">睡眠</tspan>
            </text>
        </g>
    </g>
</svg>