<?xml version="1.0" encoding="UTF-8"?>
<svg width="333px" height="251px" viewBox="0 0 333 251" version="1.1" xmlns="http://www.w3.org/2000/svg" xmlns:xlink="http://www.w3.org/1999/xlink">
    <title>心电备份</title>
    <g id="页面-1" stroke="none" stroke-width="1" fill="none" fill-rule="evenodd">
        <g id="心电备份">
            <rect id="矩形" fill="#FFFFFF" x="0" y="0" width="333" height="251" rx="16"></rect>
            <g id="心电" transform="translate(44.500000, 77.500000)">
                <rect id="矩形" x="0" y="0" width="96" height="96"></rect>
                <g id="心电图-(1)" transform="translate(14.400000, 18.999900)" fill="#56C071" fill-rule="nonzero">
                    <path d="M59.4724,0 L7.728,0 C3.4639779,0.00220077485 0.00661715995,3.45598246 0,7.72 L0,41.05 C0.00639714454,45.3141089 3.46388673,48.7680193 7.728,48.77 L59.4724,48.77 C63.7369808,48.7677973 67.1944848,45.3129778 67.2,41.0484 L67.2,7.72 C67.1936032,3.45604714 63.7363571,0.00220119153 59.4724,0 L59.4724,0 Z M56.046,28.1956 L46.3964,28.1956 C45.3003781,28.1869435 44.308688,27.5439128 43.8536,26.5468 L41.378,21.1868 L37.704,33.4432 C37.3625617,34.6450334 36.2661902,35.4752272 35.0168,35.478 L34.9908,35.478 C33.7296295,35.4640635 32.6329618,34.6098085 32.3108,33.3904 L28.9908,21.5104 L24.6468,34.7456 C24.2767038,35.9079284 23.2006012,36.7000303 21.9808,36.708 C20.7609298,36.6996428 19.685075,35.9070011 19.3156,34.7444 L17.3156,28.6364 L11.1556,28.6364 C10.3117387,28.6364 9.5319786,28.1862054 9.11004791,27.4554 C8.68811723,26.7245947 8.68811723,25.8242053 9.11004791,25.0934 C9.5319786,24.3625946 10.3117387,23.9124 11.1556,23.9124 L18.72,23.9124 C19.9414532,23.9203401 21.0183844,24.7151524 21.386,25.88 L21.9816,27.6988 L26.472,14.02 C26.8387808,12.8559861 27.9159773,12.0626028 29.1364,12.0576 L29.1984,12.0576 C30.4441028,12.0912602 31.5191229,12.9406628 31.84,14.1448 L35.08,25.7264 L38.3048,14.9664 C38.6226016,13.8362345 39.613891,13.0259243 40.7846864,12.939265 C41.9554819,12.8526057 43.0552693,13.5081398 43.536,14.5792 L47.6428,23.47 L56.0464,23.47 C56.8905471,23.4700715 57.6705331,23.9204846 58.0925448,24.6515732 C58.5145565,25.3826618 58.5144803,26.2833561 58.0923448,27.0143732 C57.6702094,27.7453903 56.8901471,28.1956715 56.046,28.1956 L56.046,28.1956 Z M62.446,58 L4.7564,58 C3.90514191,58.0110775 3.11376363,57.5632832 2.68490467,56.8278629 C2.25604571,56.0924425 2.25604571,55.1831575 2.68490467,54.4477371 C3.11376363,53.7123168 3.90514191,53.2645225 4.7564,53.2756 L62.446,53.2756 C63.2972581,53.2645225 64.0886364,53.7123168 64.5174953,54.4477371 C64.9463543,55.1831575 64.9463543,56.0924425 64.5174953,56.8278629 C64.0886364,57.5632832 63.2972581,58.0110775 62.446,58 L62.446,58 Z" id="形状"></path>
                </g>
            </g>
            <text id="心电" font-family="PingFangSC-Medium, PingFang SC" font-size="64" font-weight="400" line-spacing="64" fill="#353535">
                <tspan x="160.5" y="161.5">心电</tspan>
            </text>
        </g>
    </g>
</svg>