<?xml version="1.0" encoding="UTF-8"?>
<svg width="333px" height="251px" viewBox="0 0 333 251" version="1.1" xmlns="http://www.w3.org/2000/svg" xmlns:xlink="http://www.w3.org/1999/xlink">
    <title>心率备份</title>
    <g id="页面-1" stroke="none" stroke-width="1" fill="none" fill-rule="evenodd">
        <g id="心率备份">
            <rect id="矩形" fill="#FFFFFF" x="0" y="0" width="333" height="251" rx="16"></rect>
            <g id="心率" transform="translate(44.500000, 77.500000)">
                <rect id="矩形" x="0" y="0" width="96" height="96"></rect>
                <path d="M49.9120221,45.2085353 L54.6723883,62.5873721 C54.8211497,63.1824179 55.5649569,63.3311793 56.0112412,62.884895 L61.9704496,55.4555735 C62.1192111,55.3068121 62.2679725,55.1580506 62.5654954,55.1580506 L86.4198304,55.1580506 C86.8661147,55.1668013 87.1636376,55.4643242 87.1636376,56.05937 L87.1636376,57.9932687 C87.1636376,58.439553 86.8661147,58.7370759 86.4198304,58.7370759 L71.6749461,58.7370759 C71.3774233,58.7370759 71.2286618,58.8858374 71.0799004,59.0345988 C66.1707728,64.0837372 60.0628029,69.5791599 52.913503,75.8183899 L48.441909,80.2724825 C48.3106489,80.4124933 48.1181341,80.5 47.9168686,80.5 C47.7156031,80.5 47.531839,80.4212439 47.3918282,80.2724825 L42.9289849,75.8183899 C34.5895934,68.5378298 27.5890549,62.2985999 22.3736537,56.5056543 C21.9273694,55.9106085 22.3736537,55.1668013 22.9686995,55.1668013 L32.4981826,55.1668013 C32.7957054,55.1668013 33.0932283,55.0180398 33.2419898,54.720517 L36.5147415,47.8862412 C36.663503,47.2911955 37.5560716,47.2911955 37.8535945,47.8862412 L41.721392,58.5795638 C42.0189149,59.1746096 42.9114836,59.1746096 43.2090065,58.5795638 L48.4244076,45.0597738 C48.7219305,44.4647281 49.7632606,44.4647281 49.9120221,45.2085353 Z M31.9206381,15.5 C37.7310851,15.5 43.541532,18.0289445 47.4093296,22.6317986 C47.8556139,22.9293215 48.3018982,22.9293215 48.5994211,22.6317986 C52.4672186,18.3264674 58.2776656,15.7975229 64.0881125,15.7975229 C75.10521,15.7975229 83.7421244,24.2594238 83.7421244,35.2590199 C83.7421244,40.9032041 81.5107027,46.2498654 77.6341546,51.5965267 C77.4853931,51.7452881 77.3366317,51.8940495 77.0391088,51.8940495 L61.6991788,51.8940495 C61.4016559,51.8940495 61.2528945,52.042811 61.104133,52.1915724 L57.087574,57.0919494 C56.6412897,57.6869952 55.8974825,57.3894723 55.7487211,56.7944265 L50.6820813,31.6887453 C50.5333199,30.7961766 49.4919898,30.7961766 49.1944669,31.5399838 L43.2352585,50.703958 C42.9377356,51.4477652 42.0451669,51.4477652 41.747644,50.703958 L38.1773694,40.0106354 C38.028608,39.2668282 37.1360393,39.2668282 36.8385164,39.861874 L30.879308,51.6052773 L9.58016963,51.6052773 C9.1338853,51.6052773 8.83636241,51.3077544 8.83636241,50.8614701 L8.83636241,48.9275714 C8.83636241,48.481287 9.1338853,48.1837641 9.58016963,48.1837641 L14.9443323,48.1837641 C15.539378,48.1837641 15.8369009,47.4399569 15.539378,46.9936726 C13.4567178,42.9858643 12.2666263,39.1180668 12.2666263,34.961497 C12.2666263,23.9706516 20.7547792,15.5 31.9206381,15.5 Z" id="形状结合" fill="#FF5959" fill-rule="nonzero"></path>
            </g>
            <text id="心率" font-family="PingFangSC-Medium, PingFang SC" font-size="64" font-weight="400" line-spacing="64" fill="#353535">
                <tspan x="160.5" y="161.5">心率</tspan>
            </text>
        </g>
    </g>
</svg>