<?xml version="1.0" encoding="UTF-8"?>
<svg width="333px" height="251px" viewBox="0 0 333 251" version="1.1" xmlns="http://www.w3.org/2000/svg" xmlns:xlink="http://www.w3.org/1999/xlink">
    <title>血氧备份</title>
    <g id="页面-1" stroke="none" stroke-width="1" fill="none" fill-rule="evenodd">
        <g id="血氧备份">
            <rect id="矩形" fill="#FFFFFF" x="0" y="0" width="333" height="251" rx="16"></rect>
            <g id="血氧" transform="translate(44.500000, 77.500000)">
                <rect id="矩形" x="0" y="0" width="96" height="96"></rect>
                <path d="M50.3906126,16.8125 C49.8437376,16.0390625 48.9531126,15.578125 48.0078001,15.578125 C47.0624876,15.578125 46.1718626,16.0390625 45.6171751,16.8125 C39.7265501,25.1015625 24.9531126,46.9140625 24.9531126,57.1875 C24.9531126,70.015625 35.2734251,80.421875 47.9999876,80.421875 C60.7343626,80.421875 71.046875,70.0234375 71.046875,57.1875 C71.0624876,46.921875 56.2890501,25.109375 50.3906126,16.8125 Z M42.9296751,75.734375 C42.7343626,75.734375 42.5624876,75.6875 42.3906126,75.625 C42.3281126,75.6015625 42.2656126,75.578125 42.2109251,75.5625 C42.1484251,75.53125 42.0937376,75.484375 42.0390501,75.4453125 L42.0234251,75.4765625 C34.6171751,72.4140625 29.3906126,65.09375 29.3906126,56.53125 C29.3906126,55.5859375 30.1484251,54.828125 31.0859251,54.828125 C32.0234251,54.828125 32.7812376,55.59375 32.7812376,56.53125 C32.7812376,63.78125 37.2734251,69.953125 43.6015501,72.4296875 L43.7890501,72.578125 C44.2812376,72.875 44.6328001,73.3984375 44.6328001,74.0234375 C44.6249876,74.96875 43.8671751,75.734375 42.9296751,75.734375 L42.9296751,75.734375 Z M49.7031126,77.0078125 C48.7656126,77.0078125 48.0078001,76.2421875 48.0078001,75.3046875 C48.0078001,74.359375 48.7656126,73.6015625 49.7031126,73.6015625 C50.6406126,73.6015625 51.3984251,74.3671875 51.3984251,75.3046875 C51.3984251,76.25 50.6406126,77.0078125 49.7031126,77.0078125 Z" fill="#36BFFF" fill-rule="nonzero"></path>
            </g>
            <text id="血氧" font-family="PingFangSC-Medium, PingFang SC" font-size="64" font-weight="400" line-spacing="64" fill="#353535">
                <tspan x="160.5" y="161.5">血氧</tspan>
            </text>
        </g>
    </g>
</svg>