<?xml version="1.0" encoding="UTF-8"?>
<svg width="333px" height="251px" viewBox="0 0 333 251" version="1.1" xmlns="http://www.w3.org/2000/svg" xmlns:xlink="http://www.w3.org/1999/xlink">
    <title>血压备份</title>
    <g id="页面-1" stroke="none" stroke-width="1" fill="none" fill-rule="evenodd">
        <g id="血压备份">
            <rect id="矩形" fill="#FFFFFF" x="0" y="0" width="333" height="251" rx="16"></rect>
            <g id="血压" transform="translate(44.500000, 77.500000)">
                <rect id="矩形" x="0" y="0" width="96" height="96"></rect>
                <path d="M46.4605602,7.99999722 C53.0848775,7.99999722 58.4877529,13.634679 58.4877529,20.5532125 L58.488641,51.7372678 C65.280106,56.7905754 68.2091124,65.5985766 65.7148923,73.7591431 C63.1275739,82.2243074 55.3122946,88.0046301 46.4605602,88 C37.6226256,87.9823404 29.8316515,82.1975702 27.2584606,73.7425074 C24.7845867,65.6137831 27.690784,56.8480928 34.4321538,51.7954669 L34.4333675,20.5532125 C34.4422831,13.634679 39.8362428,7.99999722 46.4605602,7.99999722 Z M46.4605602,13.2245598 C42.7159931,13.2245598 39.6668457,16.5144294 39.6668457,20.5532125 L39.6668457,53.2735958 C39.6668498,53.9679634 39.3904045,54.633762 38.8985768,55.1239169 C38.6029808,55.4185074 38.2442044,55.6350819 37.8542221,55.7604951 C32.6519889,59.4629549 30.3789949,66.0911431 32.2495459,72.2280692 C34.1595329,78.4943775 39.9408359,82.7761157 46.4917649,82.7761157 C53.0426939,82.7761157 58.8239969,78.4943775 60.733984,72.2280692 C62.643971,65.9617608 60.2338581,59.1832579 54.7966797,55.5292517 C54.1188095,55.0740904 53.7221139,54.3569697 53.6508228,53.6029099 C53.4055108,53.2037767 53.2631903,52.7337419 53.2631903,52.2304664 L53.2631903,20.5532125 C53.2631903,16.5144294 50.2051273,13.2245598 46.4605602,13.2245598 Z M46.5675478,41.567366 C47.7880836,41.6066512 48.9419909,42.1333381 49.771328,43.0296923 C50.6006651,43.9260466 51.0362768,45.1173246 50.9807876,46.3372311 L50.9807876,57.749245 C55.9030742,59.8974067 58.6323386,65.2142747 57.508578,70.4660045 C56.3848174,75.7177343 51.7187651,79.4521588 46.3484242,79.3979129 C40.9780834,79.3436671 36.3884184,75.5157505 35.3709717,70.2423924 C34.3535251,64.9690342 37.1896332,59.7083821 42.1543081,57.6600886 L42.1543081,46.3372311 C42.0988189,45.1173246 42.5344306,43.9260466 43.3637677,43.0296923 C44.1931048,42.1333381 45.3470121,41.6066512 46.5675478,41.567366 Z M69.6144663,34.1852196 L69.6144663,39.0264098 L61.6795505,39.0264098 L61.6795505,34.1852196 L69.6144663,34.1852196 Z M69.6144663,26.9635546 L69.6144663,31.8047448 L61.6795505,31.8047448 L61.6795505,26.9635546 L69.6144663,26.9635546 Z M69.6144663,19.6438175 L69.6144663,24.4850078 L61.6795505,24.4850078 L61.6795505,19.6438175 L69.6144663,19.6438175 Z" id="形状结合" fill="#FF7E23" fill-rule="nonzero"></path>
            </g>
            <text id="血压" font-family="PingFangSC-Medium, PingFang SC" font-size="64" font-weight="400" line-spacing="64" fill="#353535">
                <tspan x="160.5" y="161.5">血压</tspan>
            </text>
        </g>
    </g>
</svg>